<svg xmlns="http://www.w3.org/2000/svg" viewBox="0 0 100 100">
  <defs>
    <linearGradient id="wingGradient" x1="0%" y1="0%" x2="100%" y2="100%">
      <stop offset="0%" style="stop-color:#667eea;stop-opacity:1" />
      <stop offset="100%" style="stop-color:#764ba2;stop-opacity:1" />
    </linearGradient>
  </defs>

  <!-- Elegant wing design -->
  <path d="M 20 50 Q 30 30, 45 25 Q 60 22, 70 20 Q 75 19, 80 20 Q 85 22, 87 27 Q 88 32, 85 37 Q 80 45, 70 50 Q 60 55, 50 58 Q 40 60, 30 62 Q 25 63, 20 62 Q 15 60, 13 55 Q 12 50, 15 45 Q 17 42, 20 40 Z"
        fill="url(#wingGradient)"
        stroke="#2c3e50"
        stroke-width="1.5"/>

  <!-- Wing detail lines -->
  <path d="M 25 48 Q 35 45, 45 43 Q 55 41, 65 40"
        fill="none"
        stroke="#2c3e50"
        stroke-width="1"
        opacity="0.4"/>
  <path d="M 27 52 Q 37 50, 47 49 Q 57 48, 67 47"
        fill="none"
        stroke="#2c3e50"
        stroke-width="1"
        opacity="0.4"/>
  <path d="M 29 56 Q 39 54, 49 53 Q 59 52, 68 52"
        fill="none"
        stroke="#2c3e50"
        stroke-width="1"
        opacity="0.3"/>
</svg>
